<svg width="60" height="31" viewBox="0 0 60 31" fill="none" xmlns="http://www.w3.org/2000/svg">
<g clip-path="url(#clip0_304_3141)">
<g clip-path="url(#clip1_304_3141)">
<path d="M59.9439 13.6628H0V17.3373H59.9439V13.6628Z" fill="#FA4605"/>
<path d="M58.8523 17.3372C49.1715 17.3372 39.7775 13.5342 32.9224 6.80996L28.6309 2.5966L31.2756 0L35.5671 4.21335C42.0543 10.5824 50.6997 13.9139 59.8815 13.6505L60 17.325C59.6195 17.3372 59.2328 17.3433 58.8523 17.3433V17.3372Z" fill="#FA4605"/>
<path d="M31.282 31.0001L28.6372 28.4035L32.9287 24.1901C40.0521 17.1964 49.9076 13.3628 60.0064 13.6812L59.8879 17.3557C50.7123 17.0923 42.0669 20.4238 35.5735 26.7928L31.282 31.0062V31.0001Z" fill="#FA4605"/>
</g>
</g>
<defs>
<clipPath id="clip0_304_3141">
<rect width="60" height="31" fill="white"/>
</clipPath>
<clipPath id="clip1_304_3141">
<rect width="60" height="31" fill="white"/>
</clipPath>
</defs>
</svg>
