<svg width="35" height="36" viewBox="0 0 35 36" fill="none" xmlns="http://www.w3.org/2000/svg">
<path d="M2.95801 0L0.00683594 3.01562L4.79492 7.9082C9.31989 12.5362 14.838 15.9703 20.832 18.002C14.8388 20.0344 9.31678 23.4683 4.78809 28.0918L0 32.9844L2.95117 36L7.73926 31.1074C14.9842 23.7111 24.6236 19.8495 34.8682 20.1553L34.8701 20.1143C34.9134 20.113 34.9567 20.1137 35 20.1123L34.9355 18L35 15.8877C34.9568 15.8862 34.9135 15.8851 34.8701 15.8838L34.8682 15.8447C24.6306 16.1505 14.9842 12.282 7.73926 4.88574L2.95801 0Z" fill="#3C3C3C"/>
</svg>
