<svg width="35" height="36" viewBox="0 0 35 36" fill="none" xmlns="http://www.w3.org/2000/svg">
<path d="M32.042 0L34.9932 3.01562L30.2051 7.9082C25.6801 12.5362 20.162 15.9703 14.168 18.002C20.1612 20.0344 25.6832 23.4683 30.2119 28.0918L35 32.9844L32.0488 36L27.2607 31.1074C20.0158 23.7111 10.3764 19.8495 0.131836 20.1553L0.129883 20.1143C0.0866134 20.113 0.0432776 20.1137 0 20.1123L0.0644531 18L0 15.8877C0.0432247 15.8862 0.0865285 15.8851 0.129883 15.8838L0.131836 15.8447C10.3694 16.1505 20.0158 12.282 27.2607 4.88574L32.042 0Z" fill="#3C3C3C"/>
</svg>
