<svg width="59" height="32" viewBox="0 0 59 32" fill="none" xmlns="http://www.w3.org/2000/svg">
<g clip-path="url(#clip0_288_770)">
<path d="M14.9033 0V2.20739C14.9033 9.18064 9.21622 14.8458 2.21598 14.8458L3.8147e-05 14.8458L3.8147e-05 12.6384C3.8147e-05 5.66516 5.68713 0 12.6874 0L14.9033 0Z" fill="#FFB400"/>
<path d="M29.208 4.85051e-05V2.20744C29.208 9.18069 23.5209 14.841 16.5207 14.841L14.3047 14.841L14.3047 12.6337C14.3047 5.65559 19.9918 -0.00476074 26.9921 -0.00476074L29.208 -0.00476074V4.85051e-05Z" fill="#FFB400"/>
<path d="M43.1794 0V2.20739C43.1794 9.18064 37.4923 14.8458 30.4921 14.8458L28.2762 14.8458V12.6384C28.2762 5.66035 33.9633 0 40.9635 0L43.1794 0Z" fill="#FFB400"/>
<path d="M58.9983 16.002L57.4314 17.5628C52.478 22.497 44.4387 22.4936 39.4888 17.5628L37.9219 16.002L39.4888 14.4411C44.4421 9.50686 52.4815 9.51026 57.4314 14.4411L58.9983 16.002Z" fill="#FFB400"/>
<path d="M43.1794 29.7926V32H40.9635C33.9584 32 28.2762 26.3348 28.2762 19.3616V17.1542H30.4921C37.4972 17.1542 43.1794 22.8193 43.1794 29.7926Z" fill="#FFB400"/>
<path d="M28.8748 29.7975V32.0049H26.6588C19.6537 32.0049 13.9715 26.3397 13.9715 19.3665V17.1591H16.1874C23.1925 17.1591 28.8748 22.8242 28.8748 29.7975Z" fill="#FFB400"/>
<path d="M14.9033 29.7926L14.9033 32H12.6874C5.68231 32 3.71933e-05 26.3348 3.71933e-05 19.3616V17.1542H2.21598C9.21622 17.1542 14.9033 22.8193 14.9033 29.7926Z" fill="#FFB400"/>
</g>
<defs>
<clipPath id="clip0_288_770">
<rect width="59" height="32" fill="white"/>
</clipPath>
</defs>
</svg>
