<svg width="64" height="32" viewBox="0 0 64 32" fill="none" xmlns="http://www.w3.org/2000/svg">
<g clip-path="url(#clip0_288_1612)">
<path d="M59.2449 11.2569C44.1993 -3.75066 19.8007 -3.75066 4.75509 11.2569L0 15.9999L4.75509 20.743C19.8007 35.7505 44.1993 35.7505 59.2449 20.743L64 15.9999L59.2449 11.2569ZM31.9974 29.409C24.5715 29.409 18.5543 23.407 18.5543 15.9999C18.5543 8.5928 24.5767 2.58562 31.9974 2.58562C39.418 2.58562 45.4405 8.58757 45.4405 15.9947C45.4405 23.4018 39.4233 29.4038 31.9974 29.4038V29.409Z" fill="#FFB400"/>
<path d="M41.9963 16.9882C42.5427 11.4789 38.5082 6.57088 32.9849 6.02584C27.4617 5.48079 22.5412 9.50511 21.9948 15.0144C21.4483 20.5237 25.4829 25.4317 31.0061 25.9768C36.5294 26.5218 41.4499 22.4975 41.9963 16.9882Z" fill="#FFB400"/>
</g>
<defs>
<clipPath id="clip0_288_1612">
<rect width="64" height="32" fill="white"/>
</clipPath>
</defs>
</svg>
