<svg width="32" height="32" viewBox="0 0 32 32" fill="none" xmlns="http://www.w3.org/2000/svg">
<g clip-path="url(#clip0_4279_323)">
<path d="M16 2.66667C23.352 2.66667 29.3333 8.648 29.3333 16C29.3333 23.352 23.352 29.3333 16 29.3333C8.648 29.3333 2.66667 23.352 2.66667 16C2.66667 8.648 8.648 2.66667 16 2.66667ZM16 0C7.164 0 0 7.164 0 16C0 24.836 7.164 32 16 32C24.836 32 32 24.836 32 16C32 7.164 24.836 0 16 0ZM13.3333 10.6667C13.3333 11.4093 12.7373 12.0107 12 12.0107C11.2627 12.0107 10.6667 11.4107 10.6667 10.6667C10.6667 9.924 11.2627 9.32267 12 9.32267C12.7373 9.32267 13.3333 9.92533 13.3333 10.6667ZM13.3333 13.3333H10.6667V21.3333H13.3333V13.3333ZM17.3333 13.3333H14.6667V21.3333H17.3333V17.5187C17.3333 15.2227 20.0027 15.0107 20.0027 17.5187V21.3333H22.6667V16.8547C22.6667 12.476 18.496 12.636 17.3333 14.7907V13.3333Z" fill="white"/>
</g>
<defs>
<clipPath id="clip0_4279_323">
<rect width="32" height="32" fill="white"/>
</clipPath>
</defs>
</svg>
