<svg width="79" height="36" viewBox="0 0 79 36" fill="none" xmlns="http://www.w3.org/2000/svg">
<path d="M31.0268 10.8193H26.8109C26.5224 10.8193 26.277 11.031 26.232 11.3187L24.5269 22.2387C24.493 22.4542 24.6582 22.6485 24.8746 22.6485H26.8873C27.1758 22.6485 27.4212 22.4368 27.4662 22.1485L27.926 19.2032C27.9704 18.9149 28.2164 18.7031 28.5043 18.7031H29.8389C32.616 18.7031 34.2188 17.3457 34.6374 14.6557C34.826 13.4788 34.6454 12.5541 34.0999 11.9065C33.5007 11.1954 32.4379 10.8193 31.0268 10.8193ZM31.5132 14.8076C31.2826 16.3357 30.1268 16.3357 29.0091 16.3357H28.373L28.8193 13.4819C28.8458 13.3095 28.9937 13.1824 29.1663 13.1824H29.4579C30.2193 13.1824 30.9374 13.1824 31.3085 13.6208C31.5298 13.8823 31.5977 14.2709 31.5132 14.8076Z" fill="white"/>
<path d="M43.6293 14.7577H41.6105C41.4385 14.7577 41.2899 14.8847 41.2634 15.0572L41.174 15.6276L41.0328 15.4209C40.5958 14.7801 39.6211 14.5659 38.6484 14.5659C36.4174 14.5659 34.5119 16.2727 34.1408 18.6669C33.9479 19.8612 34.2222 21.0032 34.8929 21.7996C35.5081 22.5319 36.3884 22.837 37.4358 22.837C39.2334 22.837 40.2302 21.6695 40.2302 21.6695L40.1402 22.2361C40.1063 22.4528 40.2715 22.6471 40.4867 22.6471H42.3052C42.5943 22.6471 42.8384 22.4354 42.8841 22.1471L43.9752 15.1674C44.0097 14.9526 43.8451 14.7577 43.6293 14.7577ZM40.8152 18.7267C40.6204 19.8917 39.705 20.6738 38.5374 20.6738C37.9512 20.6738 37.4827 20.4839 37.1818 20.124C36.8835 19.7666 36.77 19.2578 36.865 18.6912C37.0468 17.5361 37.9777 16.7285 39.1274 16.7285C39.7007 16.7285 40.1667 16.9209 40.4737 17.2839C40.7813 17.6507 40.9034 18.1625 40.8152 18.7267Z" fill="white"/>
<path d="M54.3794 14.7578H52.3507C52.1571 14.7578 51.9752 14.855 51.8655 15.0175L49.0674 19.1807L47.8814 15.18C47.8068 14.9297 47.5781 14.7578 47.3191 14.7578H45.3255C45.0833 14.7578 44.915 14.9969 44.992 15.2273L47.2267 21.8514L45.1258 24.8472C44.9606 25.0832 45.127 25.4076 45.4124 25.4076H47.4387C47.6311 25.4076 47.8111 25.3129 47.9202 25.1535L54.6679 15.3151C54.8294 15.0797 54.6636 14.7578 54.3794 14.7578Z" fill="white"/>
<path d="M61.096 10.8193H56.8795C56.5916 10.8193 56.3462 11.031 56.3012 11.3187L54.5961 22.2387C54.5622 22.4542 54.7274 22.6485 54.9426 22.6485H57.1063C57.3073 22.6485 57.4793 22.5003 57.5107 22.2985L57.9946 19.2032C58.039 18.9149 58.285 18.7031 58.5729 18.7031H59.9069C62.6846 18.7031 64.2868 17.3457 64.706 14.6557C64.8953 13.4788 64.7134 12.5541 64.1678 11.9065C63.5693 11.1954 62.5071 10.8193 61.096 10.8193ZM61.5824 14.8076C61.3525 16.3357 60.1966 16.3357 59.0784 16.3357H58.4428L58.8897 13.4819C58.9162 13.3095 59.063 13.1824 59.2362 13.1824H59.5278C60.2885 13.1824 61.0073 13.1824 61.3784 13.6208C61.5997 13.8823 61.6669 14.2709 61.5824 14.8076Z" fill="white"/>
<path d="M73.6998 14.7577H71.6822C71.5089 14.7577 71.3616 14.8847 71.3357 15.0572L71.2463 15.6276L71.1045 15.4209C70.6675 14.7801 69.6935 14.5659 68.7207 14.5659C66.4898 14.5659 64.5849 16.2727 64.2138 18.6669C64.0215 19.8612 64.2945 21.0032 64.9652 21.7996C65.5817 22.5319 66.4608 22.837 67.5081 22.837C69.3057 22.837 70.3025 21.6695 70.3025 21.6695L70.2125 22.2361C70.1786 22.4528 70.3438 22.6471 70.5602 22.6471H72.3781C72.666 22.6471 72.9114 22.4354 72.9564 22.1471L74.0481 15.1674C74.0814 14.9526 73.9162 14.7577 73.6998 14.7577ZM70.8857 18.7267C70.6921 19.8917 69.7755 20.6738 68.6079 20.6738C68.0229 20.6738 67.5531 20.4839 67.2523 20.124C66.9539 19.7666 66.8417 19.2578 66.9354 18.6912C67.1185 17.5361 68.0482 16.7285 69.1978 16.7285C69.7711 16.7285 70.2372 16.9209 70.5442 17.2839C70.853 17.6507 70.9751 18.1625 70.8857 18.7267Z" fill="white"/>
<path d="M76.082 11.1195L74.3516 22.2394C74.3177 22.4548 74.4829 22.6491 74.698 22.6491H76.4377C76.7268 22.6491 76.9722 22.4374 77.0165 22.1491L78.7229 11.2297C78.7568 11.0142 78.5916 10.8193 78.3764 10.8193H76.4284C76.2564 10.82 76.1085 10.947 76.082 11.1195Z" fill="white"/>
<path fill-rule="evenodd" clip-rule="evenodd" d="M8.56715 26.564L8.90258 24.3937L8.15535 24.3759H4.58716L7.06692 8.3602C7.07465 8.3117 7.09962 8.26668 7.1361 8.23465C7.17275 8.20263 7.21946 8.18506 7.26833 8.18506H13.2848C15.2824 8.18506 16.6608 8.60836 17.3804 9.44398C17.7178 9.83599 17.9327 10.2457 18.0367 10.6965C18.1457 11.1696 18.1475 11.7347 18.0412 12.4241L18.0334 12.4743V12.916L18.3709 13.1108C18.6549 13.2643 18.8808 13.44 19.054 13.6411C19.3425 13.9764 19.5292 14.4024 19.6081 14.9074C19.6896 15.4267 19.6627 16.045 19.5292 16.7448C19.3752 17.5497 19.1264 18.2508 18.7902 18.8243C18.4812 19.3529 18.0873 19.7913 17.6197 20.131C17.1732 20.4538 16.6428 20.6989 16.0431 20.8557C15.4619 21.0098 14.7993 21.0876 14.0725 21.0876H13.6043C13.2696 21.0876 12.9444 21.2104 12.6891 21.4306C12.433 21.6553 12.2638 21.9624 12.2119 22.2982L12.1765 22.4937L11.5838 26.3191L11.557 26.4595C11.5498 26.504 11.5376 26.5261 11.5196 26.5411C11.5036 26.5548 11.4806 26.564 11.4582 26.564H8.56715" fill="#28356A"/>
<path fill-rule="evenodd" clip-rule="evenodd" d="M18.6906 12.5249C18.6728 12.6418 18.6522 12.7614 18.6292 12.8842C17.8358 17.0337 15.1212 18.4672 11.6543 18.4672H9.88908C9.46506 18.4672 9.10771 18.7807 9.04177 19.2068L7.88202 26.7001C7.83908 26.9799 8.05072 27.2319 8.32777 27.2319H11.4587C11.8293 27.2319 12.1443 26.9576 12.2027 26.5852L12.2334 26.4232L12.8229 22.6128L12.8608 22.4038C12.9184 22.0301 13.2341 21.7555 13.6048 21.7555H14.073C17.1063 21.7555 19.481 20.5012 20.175 16.871C20.4648 15.3546 20.3148 14.0884 19.5476 13.1978C19.3155 12.9294 19.0275 12.7064 18.6906 12.5249" fill="#B7CEE0"/>
<path fill-rule="evenodd" clip-rule="evenodd" d="M17.8602 12.188C17.7389 12.152 17.6139 12.1194 17.4856 12.0899C17.3566 12.0612 17.2246 12.0358 17.0886 12.0134C16.6126 11.9351 16.091 11.8979 15.5325 11.8979H10.8167C10.7005 11.8979 10.5902 11.9247 10.4915 11.973C10.274 12.0795 10.1124 12.2892 10.0733 12.546L9.07001 19.0183L9.04126 19.207C9.1072 18.7809 9.46456 18.4674 9.88857 18.4674H11.6538C15.1207 18.4674 17.8353 17.0332 18.6287 12.8844C18.6524 12.7616 18.6723 12.6421 18.6901 12.5251C18.4894 12.4166 18.272 12.3238 18.0379 12.2448C17.9801 12.2252 17.9204 12.2063 17.8602 12.188" fill="#E9F0F6"/>
<path fill-rule="evenodd" clip-rule="evenodd" d="M10.0735 12.5463C10.1127 12.2896 10.2742 12.0798 10.4918 11.974C10.5911 11.9255 10.7007 11.8988 10.817 11.8988H15.5327C16.0913 11.8988 16.6129 11.9362 17.0888 12.0145C17.2248 12.0366 17.3569 12.0623 17.4859 12.091C17.6142 12.1203 17.7392 12.153 17.8605 12.1889C17.9207 12.2072 17.9803 12.2262 18.0387 12.2451C18.2728 12.3241 18.4904 12.4177 18.6911 12.5255C18.9272 10.992 18.6891 9.94794 17.8752 9.00252C16.9778 7.96156 15.3583 7.51611 13.2858 7.51611H7.2691C6.8458 7.51611 6.48467 7.82961 6.41927 8.25639L3.91327 24.4368C3.86387 24.7569 4.10624 25.0457 4.42317 25.0457H8.13761L10.0735 12.5463" fill="white"/>
</svg>
