<svg width="186" height="70" viewBox="0 0 186 70" fill="none" xmlns="http://www.w3.org/2000/svg">
<g clip-path="url(#clip0_32_615)">
<path d="M3.6648 69.9535C3.16893 69.9535 2.70404 69.876 2.27015 69.7287C1.83626 69.5814 1.45661 69.3643 1.12344 69.0775C0.790272 68.7907 0.534586 68.4419 0.348633 68.031L2.0997 67.2248C2.25466 67.4729 2.46385 67.6899 2.73504 67.8682C3.00622 68.0465 3.31614 68.1395 3.6648 68.1395C4.01347 68.1395 4.26915 68.093 4.45511 67.9922C4.64106 67.8915 4.73404 67.7519 4.73404 67.5659C4.73404 67.3798 4.65656 67.2403 4.50934 67.155C4.36213 67.0698 4.15293 66.9922 3.89725 66.9302L3.18442 66.7442C2.44061 66.5504 1.85176 66.2326 1.42561 65.8062C0.99947 65.3798 0.782524 64.8837 0.782524 64.3256C0.782524 63.5271 1.03821 62.9147 1.54958 62.4806C2.06095 62.0465 2.78927 61.8295 3.72679 61.8295C4.21492 61.8295 4.6643 61.8992 5.0827 62.0465C5.50109 62.1938 5.85751 62.3953 6.15968 62.6512C6.46185 62.907 6.6633 63.2093 6.77953 63.5504L5.09045 64.3256C5.02072 64.1163 4.84251 63.9535 4.56358 63.8217C4.28465 63.6899 4.00572 63.6279 3.72679 63.6279C3.44786 63.6279 3.23091 63.6899 3.0837 63.8062C2.93649 63.9225 2.85901 64.0853 2.85901 64.2946C2.85901 64.4264 2.92874 64.5426 3.07595 64.6279C3.22316 64.7132 3.42461 64.7907 3.6958 64.8527L4.70304 65.1008C5.20667 65.2248 5.61732 65.4263 5.91949 65.6977C6.22166 65.969 6.44636 66.2791 6.58582 66.6124C6.72529 66.9457 6.79502 67.2791 6.79502 67.5969C6.79502 68.062 6.65556 68.4729 6.38437 68.8295C6.11319 69.186 5.74129 69.4651 5.26865 69.6589C4.79602 69.8527 4.2614 69.9535 3.6648 69.9535Z" fill="#3C3C3C"/>
<path d="M13.0399 69.9535C12.2728 69.9535 11.5988 69.7829 11.0099 69.4341C10.4211 69.0853 9.95618 68.6124 9.62301 68C9.28984 67.3876 9.11938 66.6899 9.11938 65.8915C9.11938 65.093 9.28984 64.3953 9.6385 63.7829C9.98717 63.1705 10.4598 62.6977 11.0641 62.3488C11.6685 62 12.3658 61.8295 13.1484 61.8295C13.8302 61.8295 14.4578 62.0077 15.0312 62.3643C15.6045 62.7209 16.0616 63.2403 16.4103 63.9302C16.759 64.6201 16.9294 65.4496 16.9294 66.4341H11.0564L11.2424 66.2481C11.2424 66.6279 11.3353 66.9612 11.529 67.2481C11.7227 67.5349 11.9707 67.7519 12.2728 67.8992C12.575 68.0465 12.9082 68.124 13.2569 68.124C13.683 68.124 14.0239 68.031 14.2951 67.8527C14.5663 67.6744 14.7677 67.4341 14.9149 67.1473L16.7435 67.8605C16.5265 68.2946 16.2476 68.6667 15.8989 68.9845C15.5503 69.3023 15.1396 69.5426 14.667 69.7054C14.1944 69.8682 13.652 69.9535 13.0399 69.9535ZM11.3508 65.1008L11.1649 64.9147H14.8994L14.729 65.1008C14.729 64.7287 14.6438 64.4341 14.4655 64.2093C14.2873 63.9845 14.0781 63.8217 13.8225 63.7209C13.5668 63.6201 13.3266 63.5659 13.0864 63.5659C12.8462 63.5659 12.5983 63.6201 12.3271 63.7209C12.0559 63.8217 11.8312 63.9845 11.6375 64.2093C11.4438 64.4341 11.3508 64.7287 11.3508 65.1008Z" fill="#3C3C3C"/>
<path d="M19.6877 69.7674V58.9147H21.7332V69.7674H19.6877ZM24.8325 65.7984C24.8325 65.2713 24.7705 64.8605 24.6465 64.5736C24.5225 64.2868 24.3521 64.0775 24.1351 63.9457C23.9182 63.8139 23.6625 63.7519 23.3758 63.7519C22.849 63.7442 22.4461 63.8992 22.1594 64.2326C21.8727 64.5659 21.7332 65.0543 21.7332 65.7054H21.0514C21.0514 64.876 21.1754 64.1783 21.4156 63.6047C21.6558 63.031 21.9967 62.5891 22.4383 62.2868C22.8799 61.9845 23.3913 61.8295 23.9802 61.8295C24.6 61.8295 25.1269 61.9535 25.553 62.2015C25.9792 62.4496 26.3123 62.8372 26.537 63.3566C26.7617 63.876 26.8779 64.5504 26.8779 65.3798V65.7984H24.8325ZM24.8325 69.7674V65.7984H26.8779V69.7674H24.8325Z" fill="#3C3C3C"/>
<path d="M33.5568 69.9535C32.7897 69.9535 32.1156 69.7829 31.5268 69.4341C30.9379 69.0853 30.473 68.6124 30.1399 68C29.8067 67.3876 29.6362 66.6899 29.6362 65.8915C29.6362 65.093 29.8067 64.3953 30.1553 63.7829C30.504 63.1705 30.9766 62.6977 31.581 62.3488C32.1853 62 32.8827 61.8295 33.6652 61.8295C34.3471 61.8295 34.9746 62.0077 35.548 62.3643C36.1214 62.7209 36.5785 63.2403 36.9272 63.9302C37.2758 64.6201 37.4463 65.4496 37.4463 66.4341H31.5732L31.7592 66.2481C31.7592 66.6279 31.8522 66.9612 32.0459 67.2481C32.2396 67.5349 32.4875 67.7519 32.7897 67.8992C33.0919 68.0465 33.425 68.124 33.7737 68.124C34.1998 68.124 34.5408 68.031 34.8119 67.8527C35.0831 67.6744 35.2846 67.4341 35.4318 67.1473L37.2603 67.8605C37.0434 68.2946 36.7644 68.6667 36.4158 68.9845C36.0671 69.3023 35.6565 69.5426 35.1838 69.7054C34.7112 69.8682 34.1688 69.9535 33.5568 69.9535ZM31.8677 65.1008L31.6817 64.9147H35.4163L35.2458 65.1008C35.2458 64.7287 35.1606 64.4341 34.9824 64.2093C34.8042 63.9845 34.595 63.8217 34.3393 63.7209C34.0836 63.6201 33.8434 63.5659 33.6032 63.5659C33.363 63.5659 33.1151 63.6201 32.8439 63.7209C32.5727 63.8217 32.3481 63.9845 32.1544 64.2093C31.9606 64.4341 31.8677 64.7287 31.8677 65.1008Z" fill="#3C3C3C"/>
<path d="M40.1892 69.7674V62.0155H42.1107L42.2347 63.4419V69.7674H40.1892ZM45.3184 65.7984C45.3184 65.2713 45.2564 64.8605 45.1402 64.5736C45.024 64.2868 44.8535 64.0775 44.6366 63.9457C44.4197 63.8139 44.164 63.7519 43.8773 63.7519C43.3504 63.7442 42.9475 63.8992 42.6608 64.2326C42.3742 64.5659 42.2347 65.0543 42.2347 65.7054H41.5529C41.5529 64.876 41.6768 64.1783 41.917 63.6046C42.1572 63.031 42.4981 62.5891 42.9398 62.2868C43.3814 61.9845 43.8928 61.8295 44.4816 61.8295C45.0705 61.8295 45.6129 61.9535 46.0467 62.2015C46.4806 62.4496 46.8138 62.8372 47.0385 63.3566C47.2632 63.876 47.3717 64.5504 47.3639 65.3798V65.7984H45.3184ZM45.3184 69.7674V65.7984H47.3639V69.7674H45.3184Z" fill="#3C3C3C"/>
<path d="M55.6389 65.9845V62.0155H57.6844V65.9845H55.6389ZM57.6844 65.9845C57.6844 66.5039 57.7464 66.907 57.8626 67.2016C57.9788 67.4961 58.1493 67.7054 58.374 67.8372C58.5987 67.969 58.8466 68.031 59.1255 68.031C59.6602 68.0388 60.0708 67.876 60.3497 67.5426C60.6287 67.2093 60.7681 66.7209 60.7681 66.0775H61.4655C61.4655 66.907 61.3415 67.6046 61.0936 68.1783C60.8456 68.7519 60.5047 69.1938 60.0708 69.4961C59.6369 69.7984 59.1255 69.9535 58.5367 69.9535C57.9169 69.9535 57.39 69.8295 56.9561 69.5814C56.5222 69.3333 56.1968 68.9457 55.9721 68.4264C55.7474 67.907 55.6389 67.2326 55.6389 66.4031V65.9845H57.6844ZM60.8921 69.7674L60.7681 68.3411V62.0155H62.8136V69.7674H60.8921Z" fill="#3C3C3C"/>
<path d="M66.1296 69.7674V62.0155H68.0512L68.1751 63.4419V69.7674H66.1296ZM71.2589 65.7984C71.2589 65.2713 71.1969 64.8605 71.0807 64.5736C70.9644 64.2868 70.794 64.0775 70.577 63.9457C70.3601 63.8139 70.1044 63.7519 69.8177 63.7519C69.2908 63.7442 68.888 63.8992 68.6013 64.2326C68.3146 64.5659 68.1751 65.0543 68.1751 65.7054H67.4933C67.4933 64.876 67.6173 64.1783 67.8575 63.6046C68.0976 63.031 68.4386 62.5891 68.8802 62.2868C69.3218 61.9845 69.8332 61.8295 70.4221 61.8295C71.0109 61.8295 71.5533 61.9535 71.9872 62.2015C72.4211 62.4496 72.7542 62.8372 72.9789 63.3566C73.2036 63.876 73.3121 64.5504 73.3043 65.3798V65.7984H71.2589ZM71.2589 69.7674V65.7984H73.3043V69.7674H71.2589Z" fill="#3C3C3C"/>
<path d="M79.5649 69.9535C78.8521 69.9535 78.2322 69.7907 77.7131 69.4574C77.194 69.124 76.7833 68.6589 76.4966 68.0465C76.21 67.4341 76.0627 66.7209 76.0627 65.8915C76.0627 65.062 76.21 64.3333 76.4966 63.7287C76.7833 63.124 77.194 62.6589 77.7131 62.3256C78.2322 61.9922 78.8521 61.8295 79.5649 61.8295C80.2157 61.8295 80.7658 61.9922 81.2152 62.3256C81.6646 62.6589 82.0055 63.124 82.2457 63.7287C82.4859 64.3333 82.6021 65.0543 82.6021 65.8915C82.6021 66.7287 82.4859 67.4341 82.2457 68.0465C82.0055 68.6589 81.6646 69.124 81.2152 69.4574C80.7658 69.7907 80.2157 69.9535 79.5649 69.9535ZM80.0917 68.0775C80.4404 68.0775 80.7581 67.9845 81.0293 67.7984C81.3004 67.6124 81.5174 67.3566 81.6723 67.0233C81.8273 66.6899 81.9048 66.3178 81.9048 65.8915C81.9048 65.4651 81.8273 65.093 81.6723 64.7597C81.5174 64.4264 81.3004 64.1705 81.0293 63.9922C80.7581 63.814 80.4404 63.7209 80.0762 63.7209C79.7121 63.7209 79.3789 63.814 79.1 63.9922C78.8211 64.1705 78.5964 64.4264 78.4337 64.7597C78.2709 65.093 78.1857 65.4651 78.1857 65.8915C78.1857 66.3178 78.2709 66.6899 78.4337 67.0233C78.5964 67.3566 78.8211 67.6124 79.1077 67.7984C79.3944 67.9845 79.7198 68.0775 80.0917 68.0775ZM81.9978 69.7674L81.8893 68.3256V58.9147H83.9348V69.7674H81.9978Z" fill="#3C3C3C"/>
<path d="M95.9908 69.9535C95.2238 69.9535 94.5497 69.7829 93.9608 69.4341C93.372 69.0853 92.9071 68.6124 92.5739 68C92.2408 67.3876 92.0703 66.6899 92.0703 65.8915C92.0703 65.093 92.2408 64.3953 92.5894 63.7829C92.9381 63.1705 93.4107 62.6977 94.0151 62.3488C94.6194 62 95.3167 61.8295 96.0993 61.8295C96.7811 61.8295 97.4087 62.0077 97.9821 62.3643C98.5554 62.7209 99.0126 63.2403 99.3612 63.9302C99.7099 64.6201 99.8804 65.4496 99.8804 66.4341H94.0073L94.1933 66.2481C94.1933 66.6279 94.2863 66.9612 94.48 67.2481C94.6737 67.5349 94.9216 67.7519 95.2238 67.8992C95.5259 68.0465 95.8591 68.124 96.2078 68.124C96.6339 68.124 96.9748 68.031 97.246 67.8527C97.5172 67.6744 97.7186 67.4341 97.8659 67.1473L99.6944 67.8605C99.4775 68.2946 99.1985 68.6667 98.8499 68.9845C98.5012 69.3023 98.0906 69.5426 97.6179 69.7054C97.1453 69.8682 96.6029 69.9535 95.9908 69.9535ZM94.3018 65.1008L94.1158 64.9147H97.8504L97.6799 65.1008C97.6799 64.7287 97.5947 64.4341 97.4165 64.2093C97.2383 63.9845 97.0291 63.8217 96.7734 63.7209C96.5177 63.6201 96.2775 63.5659 96.0373 63.5659C95.7971 63.5659 95.5492 63.6201 95.278 63.7209C95.0068 63.8217 94.7821 63.9845 94.5884 64.2093C94.3947 64.4341 94.3018 64.7287 94.3018 65.1008Z" fill="#3C3C3C"/>
<path d="M102.623 69.7674V62.0155H104.669V69.7674H102.623ZM104.064 65.6899C104.064 64.8527 104.227 64.1628 104.552 63.6124C104.878 63.062 105.296 62.6589 105.808 62.3876C106.319 62.1163 106.853 61.9845 107.411 61.9845V63.969C106.939 63.969 106.489 64.0233 106.071 64.1395C105.653 64.2558 105.312 64.4419 105.056 64.6977C104.8 64.9535 104.669 65.2868 104.669 65.6899H104.064Z" fill="#3C3C3C"/>
<path d="M110.046 69.7674V62.0155H111.967L112.091 63.4419V69.7674H110.046ZM115.175 65.7984C115.175 65.2713 115.113 64.8605 114.997 64.5736C114.88 64.2868 114.71 64.0775 114.493 63.9457C114.276 63.8139 114.02 63.7519 113.734 63.7519C113.207 63.7442 112.804 63.8992 112.517 64.2326C112.231 64.5659 112.091 65.0543 112.091 65.7054H111.409C111.409 64.876 111.533 64.1783 111.773 63.6046C112.014 63.031 112.355 62.5891 112.796 62.2868C113.238 61.9845 113.749 61.8295 114.338 61.8295C114.927 61.8295 115.469 61.9535 115.903 62.2015C116.337 62.4496 116.67 62.8372 116.895 63.3566C117.12 63.876 117.228 64.5504 117.22 65.3798V65.7984H115.175ZM115.175 69.7674V65.7984H117.22V69.7674H115.175Z" fill="#3C3C3C"/>
<path d="M119.731 63.7519V62.0155H124.968V63.7519H119.731ZM123.589 69.9535C122.729 69.9535 122.086 69.7442 121.644 69.3178C121.203 68.8915 120.986 68.2868 120.986 67.5039V59.5969H123.031V67.0543C123.031 67.3876 123.101 67.6357 123.248 67.8062C123.396 67.9767 123.605 68.062 123.884 68.062C123.984 68.062 124.101 68.0388 124.225 67.9922C124.349 67.9457 124.48 67.876 124.612 67.7829L125.325 69.3178C125.077 69.5039 124.798 69.6589 124.496 69.7752C124.194 69.8915 123.891 69.9535 123.589 69.9535Z" fill="#3C3C3C"/>
<path d="M131.539 69.9535C130.772 69.9535 130.098 69.7829 129.509 69.4341C128.92 69.0853 128.455 68.6124 128.122 68C127.789 67.3876 127.618 66.6899 127.618 65.8915C127.618 65.093 127.789 64.3953 128.138 63.7829C128.486 63.1705 128.959 62.6977 129.563 62.3488C130.168 62 130.865 61.8295 131.647 61.8295C132.329 61.8295 132.957 62.0077 133.53 62.3643C134.104 62.7209 134.561 63.2403 134.909 63.9302C135.258 64.6201 135.428 65.4496 135.428 66.4341H129.555L129.741 66.2481C129.741 66.6279 129.834 66.9612 130.028 67.2481C130.222 67.5349 130.47 67.7519 130.772 67.8992C131.074 68.0465 131.407 68.124 131.756 68.124C132.182 68.124 132.523 68.031 132.794 67.8527C133.065 67.6744 133.267 67.4341 133.414 67.1473L135.242 67.8605C135.026 68.2946 134.747 68.6667 134.398 68.9845C134.049 69.3023 133.639 69.5426 133.166 69.7054C132.693 69.8682 132.151 69.9535 131.539 69.9535ZM129.85 65.1008L129.664 64.9147H133.398L133.228 65.1008C133.228 64.7287 133.143 64.4341 132.965 64.2093C132.786 63.9845 132.577 63.8217 132.321 63.7209C132.066 63.6201 131.826 63.5659 131.585 63.5659C131.345 63.5659 131.097 63.6201 130.826 63.7209C130.555 63.8217 130.33 63.9845 130.137 64.2093C129.943 64.4341 129.85 64.7287 129.85 65.1008Z" fill="#3C3C3C"/>
<path d="M138.171 69.7674V62.0155H140.093L140.217 63.4419V69.7674H138.171ZM143.3 65.7984C143.3 65.2713 143.238 64.8605 143.122 64.5736C143.006 64.2868 142.835 64.0775 142.619 63.9457C142.402 63.8139 142.146 63.7519 141.859 63.7519C141.332 63.7442 140.929 63.8992 140.643 64.2326C140.356 64.5659 140.217 65.0543 140.217 65.7054H139.535C139.535 64.876 139.659 64.1783 139.899 63.6046C140.139 63.031 140.48 62.5891 140.922 62.2868C141.363 61.9845 141.875 61.8295 142.464 61.8295C143.052 61.8295 143.595 61.9535 144.029 62.2015C144.463 62.4496 144.796 62.8372 145.02 63.3566C145.245 63.876 145.354 64.5504 145.346 65.3798V65.7984H143.3ZM143.3 69.7674V65.7984H145.346V69.7674H143.3Z" fill="#3C3C3C"/>
<path d="M157.262 69.9535C156.495 69.9535 155.821 69.7829 155.232 69.4341C154.643 69.0853 154.179 68.6124 153.845 68C153.512 67.3876 153.342 66.6899 153.342 65.8915C153.342 65.093 153.512 64.3953 153.861 63.7829C154.21 63.1705 154.682 62.6977 155.287 62.3488C155.891 62 156.588 61.8295 157.371 61.8295C158.053 61.8295 158.68 62.0077 159.254 62.3643C159.827 62.7209 160.284 63.2403 160.633 63.9302C160.981 64.6201 161.152 65.4496 161.152 66.4341H155.279L155.465 66.2481C155.465 66.6279 155.558 66.9612 155.751 67.2481C155.945 67.5349 156.193 67.7519 156.495 67.8992C156.797 68.0465 157.131 68.124 157.479 68.124C157.905 68.124 158.246 68.031 158.517 67.8527C158.789 67.6744 158.99 67.4341 159.137 67.1473L160.966 67.8605C160.749 68.2946 160.47 68.6667 160.121 68.9845C159.773 69.3023 159.362 69.5426 158.889 69.7054C158.417 69.8682 157.874 69.9535 157.262 69.9535ZM155.573 65.1008L155.387 64.9147H159.122L158.951 65.1008C158.951 64.7287 158.866 64.4341 158.688 64.2093C158.51 63.9845 158.301 63.8217 158.045 63.7209C157.789 63.6201 157.549 63.5659 157.309 63.5659C157.069 63.5659 156.821 63.6201 156.549 63.7209C156.278 63.8217 156.054 63.9845 155.86 64.2093C155.666 64.4341 155.573 64.7287 155.573 65.1008Z" fill="#3C3C3C"/>
<path d="M164.933 70C164.592 70 164.298 69.876 164.058 69.6279C163.817 69.3798 163.693 69.0853 163.693 68.7442C163.693 68.4031 163.817 68.124 164.058 67.876C164.298 67.6279 164.592 67.5039 164.933 67.5039C165.274 67.5039 165.568 67.6279 165.809 67.876C166.049 68.124 166.173 68.4109 166.173 68.7442C166.173 69.0775 166.049 69.3798 165.809 69.6279C165.568 69.876 165.274 70 164.933 70Z" fill="#3C3C3C"/>
<path d="M172.851 69.7674L168.528 58.9147H170.806L174.928 69.7674H172.851ZM173.084 69.7674L177.19 58.9147H179.468L175.16 69.7674H173.084Z" fill="#3C3C3C"/>
<path d="M183.063 70C182.723 70 182.428 69.876 182.188 69.6279C181.948 69.3798 181.824 69.0853 181.824 68.7442C181.824 68.4031 181.948 68.124 182.188 67.876C182.428 67.6279 182.723 67.5039 183.063 67.5039C183.404 67.5039 183.699 67.6279 183.939 67.876C184.179 68.124 184.303 68.4109 184.303 68.7442C184.303 69.0775 184.179 69.3798 183.939 69.6279C183.699 69.876 183.404 70 183.063 70Z" fill="#3C3C3C"/>
<path d="M85.8563 16.3643C64.0532 -5.45736 28.6988 -5.45736 6.88803 16.3643L0 23.2558L6.88803 30.1473C28.6988 51.969 64.0532 51.969 85.8563 30.1473L92.7443 23.2558L85.8563 16.3643ZM46.3722 42.7519C35.6101 42.7519 26.8858 34.0233 26.8858 23.2558C26.8858 12.4884 35.6101 3.75969 46.3722 3.75969C57.1342 3.75969 65.8585 12.4884 65.8585 23.2558C65.8585 34.0233 57.1342 42.7519 46.3722 42.7519Z" fill="#3C3C3C"/>
<path d="M52.3059 37.5817C60.2127 34.3049 63.9675 25.2357 60.6924 17.3249C57.4173 9.41413 48.3525 5.65751 40.4457 8.93426C32.5389 12.211 28.7842 21.2803 32.0593 29.191C35.3344 37.1018 44.3991 40.8584 52.3059 37.5817Z" fill="#3C3C3C"/>
<path d="M154.814 23.2558L157.131 25.5736C164.46 32.907 176.354 32.907 183.683 25.5736L186 23.2558L183.683 20.938C176.354 13.6047 164.46 13.6047 157.131 20.938L154.814 23.2558Z" fill="#3C3C3C"/>
<path d="M100.609 22.062V18.7829C100.609 8.41085 109.015 0 119.39 0H122.667V3.27907C122.667 13.6512 114.261 22.0698 103.886 22.0698H100.609V22.062Z" fill="#3C3C3C"/>
<path d="M100.609 24.4496V27.7287C100.609 38.1008 109.015 46.5194 119.39 46.5194H122.667V43.2403C122.667 32.8682 114.261 24.4496 103.886 24.4496H100.609Z" fill="#3C3C3C"/>
<path d="M120.823 22.062V18.7829C120.823 8.41085 129.23 0 139.605 0H142.882V3.27907C142.882 13.6512 134.475 22.0698 124.101 22.0698H120.823V22.062Z" fill="#3C3C3C"/>
<path d="M120.823 24.4496V27.7287C120.823 38.1008 129.23 46.5194 139.605 46.5194H142.882V43.2403C142.882 32.8682 134.475 24.4496 124.101 24.4496H120.823Z" fill="#3C3C3C"/>
<path d="M141.046 22.062V18.7829C141.046 8.41085 149.452 0 159.819 0H163.097V3.27907C163.097 13.6512 154.69 22.0698 144.316 22.0698H141.038L141.046 22.062Z" fill="#3C3C3C"/>
<path d="M141.046 24.4496V27.7287C141.046 38.1008 149.452 46.5194 159.827 46.5194H163.104V43.2403C163.104 32.8682 154.698 24.4496 144.323 24.4496H141.046Z" fill="#3C3C3C"/>
</g>
<defs>
<clipPath id="clip0_32_615">
<rect width="186" height="70" fill="white"/>
</clipPath>
</defs>
</svg>
