<svg width="212" height="80" viewBox="0 0 212 80" fill="none" xmlns="http://www.w3.org/2000/svg">
<g clip-path="url(#clip0_4308_458)">
<path d="M4.17718 79.9472C3.61199 79.9472 3.08212 79.8586 2.58758 79.6903C2.09304 79.522 1.66031 79.2739 1.28057 78.9461C0.900835 78.6183 0.609408 78.2196 0.397461 77.7501L2.3933 76.8287C2.56992 77.1122 2.80836 77.3603 3.11745 77.564C3.42654 77.7678 3.77978 77.8741 4.17718 77.8741C4.57458 77.8741 4.86601 77.821 5.07796 77.7058C5.2899 77.5906 5.39588 77.4311 5.39588 77.2185C5.39588 77.0059 5.30757 76.8464 5.13978 76.749C4.97198 76.6515 4.73354 76.5629 4.44212 76.492L3.62965 76.2794C2.78187 76.0579 2.1107 75.6947 1.62499 75.2074C1.13928 74.7202 0.892004 74.1532 0.892004 73.5153C0.892004 72.6028 1.18343 71.9029 1.76629 71.4068C2.34914 70.9107 3.17927 70.6626 4.24783 70.6626C4.80419 70.6626 5.3164 70.7423 5.79328 70.9107C6.27016 71.079 6.67639 71.3093 7.02081 71.6017C7.36522 71.894 7.59483 72.2396 7.7273 72.6294L5.80211 73.5153C5.72263 73.2761 5.51951 73.0901 5.20159 72.9395C4.88367 72.7888 4.56575 72.718 4.24783 72.718C3.92991 72.718 3.68264 72.7888 3.51485 72.9217C3.34706 73.0546 3.25875 73.2407 3.25875 73.4799C3.25875 73.6305 3.33823 73.7634 3.50602 73.8608C3.67381 73.9583 3.90342 74.0469 4.21251 74.1177L5.36055 74.4012C5.93458 74.543 6.40263 74.7733 6.74704 75.0834C7.09145 75.3935 7.34756 75.7479 7.50652 76.1288C7.66548 76.5098 7.74496 76.8907 7.74496 77.254C7.74496 77.7855 7.586 78.2551 7.27691 78.6626C6.96782 79.0701 6.54393 79.3891 6.00523 79.6105C5.46653 79.832 4.85718 79.9472 4.17718 79.9472Z" fill="white"/>
<path d="M14.8628 79.9472C13.9886 79.9472 13.2202 79.7523 12.5491 79.3536C11.8779 78.955 11.348 78.4145 10.9683 77.7146C10.5886 77.0148 10.3943 76.2174 10.3943 75.3049C10.3943 74.3924 10.5886 73.595 10.986 72.8952C11.3834 72.1953 11.9221 71.6548 12.6109 71.2562C13.2997 70.8575 14.0945 70.6626 14.9865 70.6626C15.7636 70.6626 16.4789 70.8664 17.1324 71.2739C17.7859 71.6814 18.307 72.275 18.7044 73.0635C19.1018 73.852 19.2961 74.7999 19.2961 75.9251H12.6021L12.814 75.7124C12.814 76.1465 12.92 76.5275 13.1408 76.8553C13.3615 77.1831 13.6441 77.4311 13.9886 77.5995C14.333 77.7678 14.7127 77.8564 15.1101 77.8564C15.5958 77.8564 15.9844 77.7501 16.2935 77.5463C16.6026 77.3426 16.8322 77.0679 17 76.7401L19.0841 77.5552C18.8368 78.0513 18.5189 78.4765 18.1215 78.8398C17.7241 79.203 17.2561 79.4777 16.7174 79.6637C16.1787 79.8497 15.5605 79.9472 14.8628 79.9472ZM12.9377 74.4012L12.7257 74.1886H16.9823L16.788 74.4012C16.788 73.976 16.6909 73.6393 16.4878 73.3824C16.2846 73.1255 16.0462 72.9394 15.7548 72.8243C15.4634 72.7091 15.1896 72.6471 14.9158 72.6471C14.6421 72.6471 14.3595 72.7091 14.0504 72.8243C13.7413 72.9394 13.4852 73.1255 13.2644 73.3824C13.0436 73.6393 12.9377 73.976 12.9377 74.4012Z" fill="white"/>
<path d="M22.4399 79.7342V67.3311H24.7714V79.7342H22.4399ZM28.3038 75.1982C28.3038 74.5957 28.2332 74.1262 28.0919 73.7984C27.9506 73.4706 27.7563 73.2314 27.509 73.0808C27.2617 72.9302 26.9703 72.8593 26.6436 72.8593C26.043 72.8504 25.5838 73.0276 25.2571 73.4086C24.9303 73.7895 24.7714 74.3477 24.7714 75.0919H23.9942C23.9942 74.1439 24.1355 73.3466 24.4093 72.691C24.683 72.0354 25.0716 71.5304 25.575 71.1849C26.0784 70.8394 26.6612 70.6622 27.3324 70.6622C28.0389 70.6622 28.6394 70.8039 29.1251 71.0874C29.6108 71.3709 29.9906 71.8139 30.2467 72.4075C30.5028 73.001 30.6352 73.7718 30.6352 74.7198V75.1982H28.3038ZM28.3038 79.7342V75.1982H30.6352V79.7342H28.3038Z" fill="white"/>
<path d="M38.2476 79.9472C37.3733 79.9472 36.605 79.7523 35.9338 79.3536C35.2627 78.955 34.7328 78.4145 34.3531 77.7146C33.9733 77.0148 33.7791 76.2174 33.7791 75.3049C33.7791 74.3924 33.9733 73.595 34.3707 72.8952C34.7681 72.1953 35.3068 71.6548 35.9957 71.2562C36.6845 70.8575 37.4793 70.6626 38.3712 70.6626C39.1484 70.6626 39.8637 70.8664 40.5172 71.2739C41.1707 71.6814 41.6917 72.275 42.0891 73.0635C42.4865 73.852 42.6808 74.7999 42.6808 75.9251H35.9868L36.1988 75.7124C36.1988 76.1465 36.3048 76.5275 36.5255 76.8553C36.7463 77.1831 37.0289 77.4311 37.3733 77.5995C37.7177 77.7678 38.0975 77.8564 38.4949 77.8564C38.9806 77.8564 39.3692 77.7501 39.6782 77.5463C39.9873 77.3426 40.2169 77.0679 40.3847 76.7401L42.4689 77.5552C42.2216 78.0513 41.9037 78.4765 41.5063 78.8398C41.1089 79.203 40.6408 79.4777 40.1021 79.6637C39.5634 79.8497 38.9453 79.9472 38.2476 79.9472ZM36.3224 74.4012L36.1105 74.1886H40.3671L40.1728 74.4012C40.1728 73.976 40.0756 73.6393 39.8725 73.3824C39.6694 73.1255 39.431 72.9394 39.1395 72.8243C38.8481 72.7091 38.5744 72.6471 38.3006 72.6471C38.0268 72.6471 37.7442 72.7091 37.4351 72.8243C37.126 72.9394 36.8699 73.1255 36.6492 73.3824C36.4284 73.6393 36.3224 73.976 36.3224 74.4012Z" fill="white"/>
<path d="M45.8071 79.7346V70.8752H47.9972L48.1385 72.5053V79.7346H45.8071ZM51.6533 75.1986C51.6533 74.5961 51.5827 74.1266 51.4502 73.7988C51.3178 73.471 51.1235 73.2318 50.8762 73.0812C50.6289 72.9306 50.3375 72.8597 50.0107 72.8597C49.4102 72.8509 48.951 73.028 48.6243 73.409C48.2975 73.7899 48.1385 74.3481 48.1385 75.0923H47.3614C47.3614 74.1443 47.5027 73.347 47.7765 72.6914C48.0502 72.0358 48.4388 71.5308 48.9422 71.1853C49.4456 70.8398 50.0284 70.6626 50.6996 70.6626C51.3707 70.6626 51.9889 70.8043 52.4835 71.0878C52.978 71.3713 53.3577 71.8143 53.6138 72.4079C53.8699 73.0015 53.9936 73.7722 53.9848 74.7202V75.1986H51.6533ZM51.6533 79.7346V75.1986H53.9848V79.7346H51.6533Z" fill="white"/>
<path d="M63.4165 75.411V70.875H65.7479V75.411H63.4165ZM65.7479 75.411C65.7479 76.0046 65.8186 76.4653 65.951 76.8019C66.0835 77.1386 66.2778 77.3778 66.5339 77.5284C66.79 77.679 67.0726 77.7499 67.3905 77.7499C67.9999 77.7587 68.4679 77.5727 68.7858 77.1917C69.1038 76.8108 69.2627 76.2526 69.2627 75.5173H70.0575C70.0575 76.4653 69.9162 77.2626 69.6336 77.9182C69.351 78.5738 68.9625 79.0788 68.4679 79.4243C67.9734 79.7698 67.3905 79.947 66.7193 79.947C66.0129 79.947 65.4123 79.8052 64.9178 79.5217C64.4233 79.2382 64.0523 78.7953 63.7962 78.2017C63.5401 77.6081 63.4165 76.8374 63.4165 75.8894V75.411H65.7479ZM69.404 79.7344L69.2627 78.1042V70.875H71.5941V79.7344H69.404Z" fill="white"/>
<path d="M75.3738 79.7346V70.8752H77.5639L77.7052 72.5053V79.7346H75.3738ZM81.22 75.1986C81.22 74.5961 81.1493 74.1266 81.0169 73.7988C80.8844 73.471 80.6901 73.2318 80.4428 73.0812C80.1956 72.9306 79.9041 72.8597 79.5774 72.8597C78.9769 72.8509 78.5177 73.028 78.1909 73.409C77.8642 73.7899 77.7052 74.3481 77.7052 75.0923H76.9281C76.9281 74.1443 77.0694 73.347 77.3431 72.6914C77.6169 72.0358 78.0055 71.5308 78.5088 71.1853C79.0122 70.8398 79.5951 70.6626 80.2662 70.6626C80.9374 70.6626 81.5556 70.8043 82.0501 71.0878C82.5447 71.3713 82.9244 71.8143 83.1805 72.4079C83.4366 73.0015 83.5602 73.7722 83.5514 74.7202V75.1986H81.22ZM81.22 79.7346V75.1986H83.5514V79.7346H81.22Z" fill="white"/>
<path d="M90.687 79.9468C89.8745 79.9468 89.168 79.7607 88.5763 79.3798C87.9847 78.9988 87.5166 78.4673 87.1899 77.7674C86.8631 77.0675 86.6953 76.2524 86.6953 75.3045C86.6953 74.3565 86.8631 73.5237 87.1899 72.8327C87.5166 72.1417 87.9847 71.6101 88.5763 71.2292C89.168 70.8482 89.8745 70.6622 90.687 70.6622C91.4288 70.6622 92.0558 70.8482 92.568 71.2292C93.0802 71.6101 93.4688 72.1417 93.7426 72.8327C94.0163 73.5237 94.1488 74.3477 94.1488 75.3045C94.1488 76.2613 94.0163 77.0675 93.7426 77.7674C93.4688 78.4673 93.0802 78.9988 92.568 79.3798C92.0558 79.7607 91.4288 79.9468 90.687 79.9468ZM91.2875 77.8028C91.6849 77.8028 92.047 77.6965 92.3561 77.4839C92.6652 77.2713 92.9124 76.9789 93.0891 76.5979C93.2657 76.217 93.354 75.7917 93.354 75.3045C93.354 74.8172 93.2657 74.392 93.0891 74.011C92.9124 73.6301 92.6652 73.3377 92.3561 73.1339C92.047 72.9302 91.6849 72.8239 91.2698 72.8239C90.8548 72.8239 90.475 72.9302 90.1571 73.1339C89.8392 73.3377 89.5831 73.6301 89.3976 74.011C89.2122 74.392 89.115 74.8172 89.115 75.3045C89.115 75.7917 89.2122 76.217 89.3976 76.5979C89.5831 76.9789 89.8392 77.2713 90.1659 77.4839C90.4927 77.6965 90.8636 77.8028 91.2875 77.8028ZM93.46 79.7342L93.3363 78.0863V67.3311H95.6677V79.7342H93.46Z" fill="white"/>
<path d="M109.409 79.9472C108.535 79.9472 107.766 79.7523 107.095 79.3536C106.424 78.955 105.894 78.4145 105.514 77.7146C105.135 77.0148 104.94 76.2174 104.94 75.3049C104.94 74.3924 105.135 73.595 105.532 72.8952C105.929 72.1953 106.468 71.6548 107.157 71.2562C107.846 70.8575 108.641 70.6626 109.532 70.6626C110.31 70.6626 111.025 70.8664 111.678 71.2739C112.332 71.6814 112.853 72.275 113.25 73.0635C113.648 73.852 113.842 74.7999 113.842 75.9251H107.148L107.36 75.7124C107.36 76.1465 107.466 76.5275 107.687 76.8553C107.908 77.1831 108.19 77.4311 108.535 77.5995C108.879 77.7678 109.259 77.8564 109.656 77.8564C110.142 77.8564 110.53 77.7501 110.839 77.5463C111.149 77.3426 111.378 77.0679 111.546 76.7401L113.63 77.5552C113.383 78.0513 113.065 78.4765 112.668 78.8398C112.27 79.203 111.802 79.4777 111.263 79.6637C110.725 79.8497 110.107 79.9472 109.409 79.9472ZM107.484 74.4012L107.272 74.1886H111.528L111.334 74.4012C111.334 73.976 111.237 73.6393 111.034 73.3824C110.831 73.1255 110.592 72.9394 110.301 72.8243C110.009 72.7091 109.736 72.6471 109.462 72.6471C109.188 72.6471 108.905 72.7091 108.596 72.8243C108.287 72.9394 108.031 73.1255 107.81 73.3824C107.59 73.6393 107.484 73.976 107.484 74.4012Z" fill="white"/>
<path d="M116.968 79.7342V70.8748H119.3V79.7342H116.968ZM118.611 75.0741C118.611 74.1173 118.796 73.3288 119.167 72.6998C119.538 72.0708 120.015 71.6101 120.598 71.3C121.181 70.99 121.79 70.8394 122.426 70.8394V73.1073C121.887 73.1073 121.375 73.1694 120.898 73.3023C120.421 73.4351 120.033 73.6478 119.741 73.9401C119.45 74.2325 119.3 74.6134 119.3 75.0741H118.611Z" fill="white"/>
<path d="M125.429 79.7346V70.8752H127.619L127.76 72.5053V79.7346H125.429ZM131.275 75.1986C131.275 74.5961 131.204 74.1266 131.072 73.7988C130.939 73.471 130.745 73.2318 130.498 73.0812C130.25 72.9306 129.959 72.8597 129.632 72.8597C129.032 72.8509 128.572 73.028 128.246 73.409C127.919 73.7899 127.76 74.3481 127.76 75.0923H126.983C126.983 74.1443 127.124 73.347 127.398 72.6914C127.672 72.0358 128.06 71.5308 128.564 71.1853C129.067 70.8398 129.65 70.6626 130.321 70.6626C130.992 70.6626 131.61 70.8043 132.105 71.0878C132.599 71.3713 132.979 71.8143 133.235 72.4079C133.491 73.0015 133.615 73.7722 133.606 74.7202V75.1986H131.275ZM131.275 79.7346V75.1986H133.606V79.7346H131.275Z" fill="white"/>
<path d="M136.468 72.859V70.8745H142.437V72.859H136.468ZM140.865 79.9465C139.885 79.9465 139.152 79.7073 138.649 79.22C138.145 78.7327 137.898 78.0417 137.898 77.1469V68.1104H140.23V76.6331C140.23 77.014 140.309 77.2975 140.477 77.4924C140.645 77.6873 140.883 77.7848 141.201 77.7848C141.316 77.7848 141.448 77.7582 141.59 77.705C141.731 77.6519 141.881 77.5721 142.031 77.4658L142.844 79.22C142.561 79.4326 142.243 79.6098 141.899 79.7427C141.554 79.8756 141.21 79.9465 140.865 79.9465Z" fill="white"/>
<path d="M149.926 79.9472C149.052 79.9472 148.284 79.7523 147.612 79.3536C146.941 78.955 146.411 78.4145 146.032 77.7146C145.652 77.0148 145.458 76.2174 145.458 75.3049C145.458 74.3924 145.652 73.595 146.049 72.8952C146.447 72.1953 146.985 71.6548 147.674 71.2562C148.363 70.8575 149.158 70.6626 150.05 70.6626C150.827 70.6626 151.542 70.8664 152.196 71.2739C152.849 71.6814 153.37 72.275 153.768 73.0635C154.165 73.852 154.359 74.7999 154.359 75.9251H147.665L147.877 75.7124C147.877 76.1465 147.983 76.5275 148.204 76.8553C148.425 77.1831 148.707 77.4311 149.052 77.5995C149.396 77.7678 149.776 77.8564 150.173 77.8564C150.659 77.8564 151.048 77.7501 151.357 77.5463C151.666 77.3426 151.896 77.0679 152.063 76.7401L154.147 77.5552C153.9 78.0513 153.582 78.4765 153.185 78.8398C152.787 79.203 152.319 79.4777 151.781 79.6637C151.242 79.8497 150.624 79.9472 149.926 79.9472ZM148.001 74.4012L147.789 74.1886H152.046L151.851 74.4012C151.851 73.976 151.754 73.6393 151.551 73.3824C151.348 73.1255 151.11 72.9394 150.818 72.8243C150.527 72.7091 150.253 72.6471 149.979 72.6471C149.705 72.6471 149.423 72.7091 149.114 72.8243C148.805 72.9394 148.549 73.1255 148.328 73.3824C148.107 73.6393 148.001 73.976 148.001 74.4012Z" fill="white"/>
<path d="M157.485 79.7346V70.8752H159.676L159.817 72.5053V79.7346H157.485ZM163.332 75.1986C163.332 74.5961 163.261 74.1266 163.129 73.7988C162.996 73.471 162.802 73.2318 162.555 73.0812C162.307 72.9306 162.016 72.8597 161.689 72.8597C161.089 72.8509 160.629 73.028 160.303 73.409C159.976 73.7899 159.817 74.3481 159.817 75.0923H159.04C159.04 74.1443 159.181 73.347 159.455 72.6914C159.729 72.0358 160.117 71.5308 160.621 71.1853C161.124 70.8398 161.707 70.6626 162.378 70.6626C163.049 70.6626 163.667 70.8043 164.162 71.0878C164.656 71.3713 165.036 71.8143 165.292 72.4079C165.548 73.0015 165.672 73.7722 165.663 74.7202V75.1986H163.332ZM163.332 79.7346V75.1986H165.663V79.7346H163.332Z" fill="white"/>
<path d="M179.245 79.9472C178.371 79.9472 177.603 79.7523 176.932 79.3536C176.26 78.955 175.731 78.4145 175.351 77.7146C174.971 77.0148 174.777 76.2174 174.777 75.3049C174.777 74.3924 174.971 73.595 175.369 72.8952C175.766 72.1953 176.305 71.6548 176.993 71.2562C177.682 70.8575 178.477 70.6626 179.369 70.6626C180.146 70.6626 180.861 70.8664 181.515 71.2739C182.168 71.6814 182.69 72.275 183.087 73.0635C183.484 73.852 183.679 74.7999 183.679 75.9251H176.985L177.197 75.7124C177.197 76.1465 177.303 76.5275 177.523 76.8553C177.744 77.1831 178.027 77.4311 178.371 77.5995C178.716 77.7678 179.095 77.8564 179.493 77.8564C179.978 77.8564 180.367 77.7501 180.676 77.5463C180.985 77.3426 181.215 77.0679 181.383 76.7401L183.467 77.5552C183.219 78.0513 182.901 78.4765 182.504 78.8398C182.107 79.203 181.639 79.4777 181.1 79.6637C180.561 79.8497 179.943 79.9472 179.245 79.9472ZM177.32 74.4012L177.108 74.1886H181.365L181.171 74.4012C181.171 73.976 181.073 73.6393 180.87 73.3824C180.667 73.1255 180.429 72.9394 180.137 72.8243C179.846 72.7091 179.572 72.6471 179.298 72.6471C179.025 72.6471 178.742 72.7091 178.433 72.8243C178.124 72.9394 177.868 73.1255 177.647 73.3824C177.426 73.6393 177.32 73.976 177.32 74.4012Z" fill="white"/>
<path d="M187.988 80.0002C187.6 80.0002 187.264 79.8584 186.99 79.5749C186.717 79.2914 186.575 78.9548 186.575 78.565C186.575 78.1751 186.717 77.8562 186.99 77.5727C187.264 77.2892 187.6 77.1475 187.988 77.1475C188.377 77.1475 188.712 77.2892 188.986 77.5727C189.26 77.8562 189.401 78.184 189.401 78.565C189.401 78.9459 189.26 79.2914 188.986 79.5749C188.712 79.8584 188.377 80.0002 187.988 80.0002Z" fill="white"/>
<path d="M197.014 79.7342L192.086 67.3311H194.682L199.38 79.7342H197.014ZM197.279 79.7342L201.959 67.3311H204.555L199.645 79.7342H197.279Z" fill="white"/>
<path d="M208.653 80.0002C208.264 80.0002 207.929 79.8584 207.655 79.5749C207.381 79.2914 207.24 78.9548 207.24 78.565C207.24 78.1751 207.381 77.8562 207.655 77.5727C207.929 77.2892 208.264 77.1475 208.653 77.1475C209.042 77.1475 209.377 77.2892 209.651 77.5727C209.925 77.8562 210.066 78.184 210.066 78.565C210.066 78.9459 209.925 79.2914 209.651 79.5749C209.377 79.8584 209.042 80.0002 208.653 80.0002Z" fill="white"/>
<path d="M97.8577 18.7024C73.0069 -6.23673 32.7105 -6.23673 7.85087 18.7024L0 26.5783L7.85087 34.4543C32.7105 59.3934 73.0069 59.3934 97.8577 34.4543L105.709 26.5783L97.8577 18.7024ZM52.8543 48.8596C40.5879 48.8596 30.644 38.884 30.644 26.5783C30.644 14.2727 40.5879 4.29705 52.8543 4.29705C65.1207 4.29705 75.0646 14.2727 75.0646 26.5783C75.0646 38.884 65.1207 48.8596 52.8543 48.8596Z" fill="white"/>
<path d="M59.6176 42.9505C68.6297 39.2056 72.9093 28.8407 69.1764 19.7999C65.4435 10.759 55.1116 6.4657 46.0995 10.2106C37.0875 13.9554 32.8079 24.3203 36.5408 33.3612C40.2737 42.402 50.6056 46.6953 59.6176 42.9505Z" fill="white"/>
<path d="M176.455 26.5782L179.095 29.2272C187.45 37.6081 201.005 37.6081 209.36 29.2272L212 26.5782L209.36 23.9293C201.005 15.5483 187.45 15.5483 179.095 23.9293L176.455 26.5782Z" fill="white"/>
<path d="M114.672 25.2137V21.4662C114.672 9.6124 124.254 0 136.079 0H139.815V3.74751C139.815 15.6013 130.233 25.2226 118.408 25.2226H114.672V25.2137Z" fill="white"/>
<path d="M114.672 27.9424V31.6899C114.672 43.5437 124.254 53.165 136.079 53.165H139.815V49.4175C139.815 37.5636 130.233 27.9424 118.408 27.9424H114.672Z" fill="white"/>
<path d="M137.713 25.2137V21.4662C137.713 9.6124 147.294 0 159.119 0H162.855V3.74751C162.855 15.6013 153.273 25.2226 141.448 25.2226H137.713V25.2137Z" fill="white"/>
<path d="M137.713 27.9424V31.6899C137.713 43.5437 147.294 53.165 159.119 53.165H162.855V49.4175C162.855 37.5636 153.273 27.9424 141.448 27.9424H137.713Z" fill="white"/>
<path d="M160.762 25.2137V21.4662C160.762 9.6124 170.344 0 182.16 0H185.895V3.74751C185.895 15.6013 176.313 25.2226 164.489 25.2226H160.753L160.762 25.2137Z" fill="white"/>
<path d="M160.762 27.9424V31.6899C160.762 43.5437 170.344 53.165 182.169 53.165H185.904V49.4175C185.904 37.5636 176.322 27.9424 164.498 27.9424H160.762Z" fill="white"/>
</g>
<defs>
<clipPath id="clip0_4308_458">
<rect width="212" height="80" fill="white"/>
</clipPath>
</defs>
</svg>
